HIERARCHY
ROOT mixamorig:Hips
{
	OFFSET 0.000000 0.563568 0.003526
	CHANNELS 6 Xposition Yposition Zposition Xrotation Yrotation Zrotation
	JOINT mixamorig:Spine
	{
		OFFSET 0.000000 0.065228 -0.005709
		CHANNELS 6 Xposition Yposition Zposition Xrotation Yrotation Zrotation
		JOINT mixamorig:Spine1
		{
			OFFSET 0.000000 0.076099 -0.006660
			CHANNELS 3 Xrotation Yrotation Zrotation
			JOINT mixamorig:Spine2
			{
				OFFSET 0.000000 0.086970 -0.007612
				CHANNELS 3 Xrotation Yrotation Zrotation
				JOINT mixamorig:Neck
				{
					OFFSET 0.000000 0.097841 -0.008563
					CHANNELS 6 Xposition Yposition Zposition Xrotation Yrotation Zrotation
					JOINT mixamorig:Head
					{
						OFFSET 0.000000 0.036700 0.014540
						CHANNELS 6 Xposition Yposition Zposition Xrotation Yrotation Zrotation
						JOINT mixamorig:HeadTop_End
						{
							OFFSET 0.000000 0.142277 0.056367
							CHANNELS 6 Xposition Yposition Zposition Xrotation Yrotation Zrotation
							End Site
							{
								OFFSET 0.000000 0.153035 0.000000
							}
						}
					}
				}
				JOINT mixamorig:LeftShoulder
				{
					OFFSET 0.046024 0.085057 -0.009514
					CHANNELS 6 Xposition Yposition Zposition Xrotation Yrotation Zrotation
					JOINT mixamorig:LeftArm
					{
						OFFSET 0.070507 -0.028884 -0.001902
						CHANNELS 6 Xposition Yposition Zposition Xrotation Yrotation Zrotation
						JOINT mixamorig:LeftForeArm
						{
							OFFSET 0.149276 -0.011538 0.001508
							CHANNELS 6 Xposition Yposition Zposition Xrotation Yrotation Zrotation
							JOINT mixamorig:LeftHand
							{
								OFFSET 0.148263 -0.012235 0.005271
								CHANNELS 3 Xrotation Yrotation Zrotation
								JOINT mixamorig:LeftHandThumb1
								{
									OFFSET 0.016599 -0.011479 0.018795
									CHANNELS 6 Xposition Yposition Zposition Xrotation Yrotation Zrotation
									JOINT mixamorig:LeftHandThumb2
									{
										OFFSET 0.013279 -0.009183 0.015036
										CHANNELS 6 Xposition Yposition Zposition Xrotation Yrotation Zrotation
										JOINT mixamorig:LeftHandThumb3
										{
											OFFSET 0.014456 -0.013059 0.010250
											CHANNELS 6 Xposition Yposition Zposition Xrotation Yrotation Zrotation
											JOINT mixamorig:LeftHandThumb4
											{
												OFFSET 0.015409 -0.005836 0.006127
												CHANNELS 6 Xposition Yposition Zposition Xrotation Yrotation Zrotation
												End Site
												{
													OFFSET 0.013332 -0.006041 0.009735
												}
											}
										}
									}
								}
								JOINT mixamorig:LeftHandIndex1
								{
									OFFSET 0.058139 -0.012928 0.026743
									CHANNELS 6 Xposition Yposition Zposition Xrotation Yrotation Zrotation
									JOINT mixamorig:LeftHandIndex2
									{
										OFFSET 0.019478 -0.002795 0.003770
										CHANNELS 6 Xposition Yposition Zposition Xrotation Yrotation Zrotation
										JOINT mixamorig:LeftHandIndex3
										{
											OFFSET 0.018431 -0.006555 0.003525
											CHANNELS 6 Xposition Yposition Zposition Xrotation Yrotation Zrotation
											JOINT mixamorig:LeftHandIndex4
											{
												OFFSET 0.014862 -0.005677 0.002838
												CHANNELS 6 Xposition Yposition Zposition Xrotation Yrotation Zrotation
												End Site
												{
													OFFSET 0.014887 -0.005666 0.002728
												}
											}
										}
									}
								}
								JOINT mixamorig:LeftHandMiddle1
								{
									OFFSET 0.064552 -0.011181 0.012411
									CHANNELS 6 Xposition Yposition Zposition Xrotation Yrotation Zrotation
									JOINT mixamorig:LeftHandMiddle2
									{
										OFFSET 0.020561 -0.003542 0.001522
										CHANNELS 6 Xposition Yposition Zposition Xrotation Yrotation Zrotation
										JOINT mixamorig:LeftHandMiddle3
										{
											OFFSET 0.018977 -0.006194 0.001281
											CHANNELS 6 Xposition Yposition Zposition Xrotation Yrotation Zrotation
											JOINT mixamorig:LeftHandMiddle4
											{
												OFFSET 0.015793 -0.005321 0.001059
												CHANNELS 6 Xposition Yposition Zposition Xrotation Yrotation Zrotation
												End Site
												{
													OFFSET 0.015799 -0.005314 0.000991
												}
											}
										}
									}
								}
								JOINT mixamorig:LeftHandRing1
								{
									OFFSET 0.067743 -0.009572 -0.001152
									CHANNELS 6 Xposition Yposition Zposition Xrotation Yrotation Zrotation
									JOINT mixamorig:LeftHandRing2
									{
										OFFSET 0.015754 -0.004869 0.000370
										CHANNELS 6 Xposition Yposition Zposition Xrotation Yrotation Zrotation
										JOINT mixamorig:LeftHandRing3
										{
											OFFSET 0.015204 -0.005043 0.000338
											CHANNELS 6 Xposition Yposition Zposition Xrotation Yrotation Zrotation
											JOINT mixamorig:LeftHandRing4
											{
												OFFSET 0.013793 -0.001850 0.000454
												CHANNELS 6 Xposition Yposition Zposition Xrotation Yrotation Zrotation
												End Site
												{
													OFFSET 0.013787 -0.001862 0.000563
												}
											}
										}
									}
								}
								JOINT mixamorig:LeftHandPinky1
								{
									OFFSET 0.058240 -0.006670 -0.013857
									CHANNELS 6 Xposition Yposition Zposition Xrotation Yrotation Zrotation
									JOINT mixamorig:LeftHandPinky2
									{
										OFFSET 0.015962 -0.004222 -0.000441
										CHANNELS 6 Xposition Yposition Zposition Xrotation Yrotation Zrotation
										JOINT mixamorig:LeftHandPinky3
										{
											OFFSET 0.013500 -0.006547 -0.000572
											CHANNELS 6 Xposition Yposition Zposition Xrotation Yrotation Zrotation
											JOINT mixamorig:LeftHandPinky4
											{
												OFFSET 0.010668 -0.001383 -0.000195
												CHANNELS 6 Xposition Yposition Zposition Xrotation Yrotation Zrotation
												End Site
												{
													OFFSET 0.010668 -0.001395 -0.000093
												}
											}
										}
									}
								}
							}
						}
					}
				}
				JOINT mixamorig:RightShoulder
				{
					OFFSET -0.046024 0.085057 -0.007612
					CHANNELS 6 Xposition Yposition Zposition Xrotation Yrotation Zrotation
					JOINT mixamorig:RightArm
					{
						OFFSET -0.070507 -0.028884 -0.003805
						CHANNELS 6 Xposition Yposition Zposition Xrotation Yrotation Zrotation
						JOINT mixamorig:RightForeArm
						{
							OFFSET -0.149276 -0.011538 0.001282
							CHANNELS 6 Xposition Yposition Zposition Xrotation Yrotation Zrotation
							JOINT mixamorig:RightHand
							{
								OFFSET -0.148263 -0.012235 0.005588
								CHANNELS 3 Xrotation Yrotation Zrotation
								JOINT mixamorig:RightHandThumb1
								{
									OFFSET -0.016492 -0.012268 0.019296
									CHANNELS 6 Xposition Yposition Zposition Xrotation Yrotation Zrotation
									JOINT mixamorig:RightHandThumb2
									{
										OFFSET -0.013194 -0.009815 0.015437
										CHANNELS 6 Xposition Yposition Zposition Xrotation Yrotation Zrotation
										JOINT mixamorig:RightHandThumb3
										{
											OFFSET -0.015136 -0.011876 0.009573
											CHANNELS 6 Xposition Yposition Zposition Xrotation Yrotation Zrotation
											JOINT mixamorig:RightHandThumb4
											{
												OFFSET -0.014578 -0.005026 0.006542
												CHANNELS 6 Xposition Yposition Zposition Xrotation Yrotation Zrotation
												End Site
												{
													OFFSET -0.012886 -0.005077 0.009421
												}
											}
										}
									}
								}
								JOINT mixamorig:RightHandIndex1
								{
									OFFSET -0.060353 -0.013094 0.027023
									CHANNELS 6 Xposition Yposition Zposition Xrotation Yrotation Zrotation
									JOINT mixamorig:RightHandIndex2
									{
										OFFSET -0.019556 -0.003388 0.003747
										CHANNELS 6 Xposition Yposition Zposition Xrotation Yrotation Zrotation
										JOINT mixamorig:RightHandIndex3
										{
											OFFSET -0.017538 -0.006243 0.003332
											CHANNELS 6 Xposition Yposition Zposition Xrotation Yrotation Zrotation
											JOINT mixamorig:RightHandIndex4
											{
												OFFSET -0.013927 -0.005867 0.002640
												CHANNELS 6 Xposition Yposition Zposition Xrotation Yrotation Zrotation
												End Site
												{
													OFFSET -0.013946 -0.005861 0.002548
												}
											}
										}
									}
								}
								JOINT mixamorig:RightHandMiddle1
								{
									OFFSET -0.069900 -0.011737 0.012215
									CHANNELS 6 Xposition Yposition Zposition Xrotation Yrotation Zrotation
									JOINT mixamorig:RightHandMiddle2
									{
										OFFSET -0.018027 -0.003254 0.001949
										CHANNELS 6 Xposition Yposition Zposition Xrotation Yrotation Zrotation
										JOINT mixamorig:RightHandMiddle3
										{
											OFFSET -0.018049 -0.006266 0.001863
											CHANNELS 6 Xposition Yposition Zposition Xrotation Yrotation Zrotation
											JOINT mixamorig:RightHandMiddle4
											{
												OFFSET -0.012728 0.000405 0.001448
												CHANNELS 6 Xposition Yposition Zposition Xrotation Yrotation Zrotation
												End Site
												{
													OFFSET -0.012711 0.000393 0.001595
												}
											}
										}
									}
								}
								JOINT mixamorig:RightHandRing1
								{
									OFFSET -0.073747 -0.012707 -0.000657
									CHANNELS 6 Xposition Yposition Zposition Xrotation Yrotation Zrotation
									JOINT mixamorig:RightHandRing2
									{
										OFFSET -0.014667 -0.003480 0.000431
										CHANNELS 6 Xposition Yposition Zposition Xrotation Yrotation Zrotation
										JOINT mixamorig:RightHandRing3
										{
											OFFSET -0.013545 -0.003837 0.000370
											CHANNELS 6 Xposition Yposition Zposition Xrotation Yrotation Zrotation
											JOINT mixamorig:RightHandRing4
											{
												OFFSET -0.009662 -0.000523 0.000371
												CHANNELS 6 Xposition Yposition Zposition Xrotation Yrotation Zrotation
												End Site
												{
													OFFSET -0.009659 -0.000529 0.000436
												}
											}
										}
									}
								}
								JOINT mixamorig:RightHandPinky1
								{
									OFFSET -0.055387 -0.006842 -0.012656
									CHANNELS 6 Xposition Yposition Zposition Xrotation Yrotation Zrotation
									JOINT mixamorig:RightHandPinky2
									{
										OFFSET -0.017334 -0.004221 -0.001570
										CHANNELS 6 Xposition Yposition Zposition Xrotation Yrotation Zrotation
										JOINT mixamorig:RightHandPinky3
										{
											OFFSET -0.014222 -0.005827 -0.001465
											CHANNELS 6 Xposition Yposition Zposition Xrotation Yrotation Zrotation
											JOINT mixamorig:RightHandPinky4
											{
												OFFSET -0.011262 -0.001679 -0.000943
												CHANNELS 6 Xposition Yposition Zposition Xrotation Yrotation Zrotation
												End Site
												{
													OFFSET -0.011266 -0.001685 -0.000890
												}
											}
										}
									}
								}
							}
						}
					}
				}
			}
		}
	}
	JOINT mixamorig:LeftUpLeg
	{
		OFFSET 0.080402 -0.036238 -0.004361
		CHANNELS 6 Xposition Yposition Zposition Xrotation Yrotation Zrotation
		JOINT mixamorig:LeftLeg
		{
			OFFSET 0.000000 -0.246371 -0.002978
			CHANNELS 3 Xrotation Yrotation Zrotation
			JOINT mixamorig:LeftFoot
			{
				OFFSET 0.008859 -0.219221 -0.017499
				CHANNELS 3 Xrotation Yrotation Zrotation
				JOINT mixamorig:LeftToeBase
				{
					OFFSET 0.006850 -0.065070 0.084472
					CHANNELS 6 Xposition Yposition Zposition Xrotation Yrotation Zrotation
					JOINT mixamorig:LeftToe_End
					{
						OFFSET 0.002745 0.000270 0.043150
						CHANNELS 3 Xrotation Yrotation Zrotation
						End Site
						{
							OFFSET 0.002745 0.000270 0.043150
						}
					}
				}
			}
		}
	}
	JOINT mixamorig:RightUpLeg
	{
		OFFSET -0.080402 -0.036238 -0.004783
		CHANNELS 6 Xposition Yposition Zposition Xrotation Yrotation Zrotation
		JOINT mixamorig:RightLeg
		{
			OFFSET 0.000000 -0.246371 -0.003118
			CHANNELS 3 Xrotation Yrotation Zrotation
			JOINT mixamorig:RightFoot
			{
				OFFSET -0.008859 -0.219221 -0.016482
				CHANNELS 3 Xrotation Yrotation Zrotation
				JOINT mixamorig:RightToeBase
				{
					OFFSET -0.006261 -0.065095 0.084808
					CHANNELS 6 Xposition Yposition Zposition Xrotation Yrotation Zrotation
					JOINT mixamorig:RightToe_End
					{
						OFFSET -0.003433 0.000265 0.043469
						CHANNELS 6 Xposition Yposition Zposition Xrotation Yrotation Zrotation
						End Site
						{
							OFFSET -0.003433 0.000265 0.043469
						}
					}
				}
			}
		}
	}
}
MOTION
Frames: 3
Frame Time: 0.033333
-0.001548 0.568287 0.002243 -3.369884 -3.173739 -0.741178 -0.000000 0.065228 -0.005709 5.851823 -0.352972 -0.483693 0.649281 -0.095945 -0.232592 0.649489 -0.091570 -0.232878 -0.000000 0.097841 -0.008563 -0.992148 0.419272 -0.071885 0.000000 0.036700 0.014540 -2.760224 3.991074 2.345395 0.000000 0.142277 0.056367 0.000000 -0.000000 -0.000000 0.046024 0.085057 -0.009514 0.813590 -0.322037 -16.980485 0.070507 -0.028884 -0.001902 -1.384056 -7.823203 -57.800209 0.149276 -0.011538 0.001508 -1.108306 -13.964758 0.161361 -10.849742 3.216688 8.510802 0.016599 -0.011479 0.018795 1.706705 3.947366 -0.363541 0.013280 -0.009183 0.015036 3.120253 15.095102 14.384349 0.014456 -0.013059 0.010250 -10.550980 -33.789728 -12.605227 0.015409 -0.005836 0.006127 -0.000001 -0.000005 -0.000001 0.058139 -0.012928 0.026743 5.750713 4.627364 -24.123456 0.019479 -0.002795 0.003770 9.356207 6.518965 -28.573355 0.018431 -0.006555 0.003525 5.027592 3.186404 -16.398396 0.014862 -0.005676 0.002838 0.000001 -0.000000 -0.000005 0.064552 -0.011181 0.012411 6.212935 3.375303 -34.420055 0.020561 -0.003542 0.001522 6.104766 7.198372 -28.975517 0.018977 -0.006194 0.001281 2.403158 3.086898 -13.617329 0.015793 -0.005321 0.001058 -0.000002 -0.000002 -0.000001 0.067743 -0.009572 -0.001152 7.231770 4.688874 -32.428379 0.015754 -0.004869 0.000370 5.488515 7.004613 -31.881598 0.015204 -0.005044 0.000338 2.983561 4.310740 -27.386448 0.013793 -0.001850 0.000454 -0.000002 -0.000003 -0.000001 0.058240 -0.006670 -0.013857 2.788428 0.572199 -38.498672 0.015963 -0.004222 -0.000441 4.352312 8.071484 -26.490047 0.013500 -0.006547 -0.000572 3.944931 6.882937 -43.996998 0.010668 -0.001383 -0.000195 0.000000 0.000000 0.000001 -0.046024 0.085057 -0.007612 0.547217 3.989832 17.553643 -0.070507 -0.028884 -0.003805 2.675657 9.229949 58.559084 -0.149276 -0.011538 0.001282 -0.519586 6.603338 -0.267437 3.944019 -3.211567 -8.700363 -0.016492 -0.012268 0.019296 3.560666 -3.959240 -6.365190 -0.013194 -0.009815 0.015437 8.763060 -8.657946 -1.371345 -0.015136 -0.011876 0.009573 -13.348733 19.272000 1.529541 -0.014578 -0.005026 0.006542 -0.000004 -0.000001 -0.000001 -0.060353 -0.013094 0.027023 5.392299 -3.532037 27.596664 -0.019556 -0.003388 0.003747 5.482204 -3.810096 18.926751 -0.017538 -0.006243 0.003332 3.714709 -2.206930 12.906385 -0.013927 -0.005867 0.002640 0.000000 -0.000002 -0.000005 -0.069900 -0.011737 0.012215 6.699898 -3.604065 35.625034 -0.018027 -0.003254 0.001949 4.564317 -4.431401 21.836810 -0.018049 -0.006266 0.001863 6.166383 -2.237826 41.006338 -0.012728 0.000405 0.001448 -0.000001 -0.000001 0.000000 -0.073747 -0.012707 -0.000657 6.404752 -3.562857 33.208892 -0.014667 -0.003480 0.000431 5.428924 -6.278393 38.341045 -0.013545 -0.003837 0.000370 2.391256 -3.204594 28.293119 -0.009662 -0.000523 0.000371 -0.000001 0.000003 -0.000001 -0.055387 -0.006842 -0.012656 -0.731206 3.519135 30.154848 -0.017334 -0.004221 -0.001570 0.814869 -5.366399 19.444454 -0.014222 -0.005827 -0.001465 -0.030686 -5.481304 33.080867 -0.011262 -0.001679 -0.000943 0.000001 0.000001 -0.000000 0.080402 -0.036238 -0.004361 -0.139235 9.768448 -2.365336 10.512956 2.517907 -1.994660 -7.262759 -0.303396 5.163579 0.006850 -0.065070 0.084472 -3.141576 0.000024 -0.000285 0.000001 0.000001 0.000000 -0.080402 -0.036238 -0.004783 -24.042980 -3.909092 0.691009 54.906692 -3.909798 0.002095 -1.316110 -0.149313 2.023254 -0.006261 -0.065095 0.084808 -0.350229 -0.000002 -0.000019 -0.003433 0.000265 0.043469 -0.000002 0.000001 -0.000001 
-0.001345 0.567325 0.002758 -2.463848 -2.035402 -1.426136 0.000000 0.065228 -0.005709 5.446721 -1.516582 0.448766 0.626693 -0.441245 -0.082923 0.627680 -0.437115 -0.080877 -0.000000 0.097842 -0.008563 -1.027126 0.489461 -0.048555 -0.000000 0.036700 0.014540 -3.232408 4.326097 2.508610 -0.000000 0.142277 0.056367 0.000000 -0.000000 0.000000 0.046024 0.085057 -0.009514 0.790711 -0.543652 -16.708577 0.070507 -0.028884 -0.001902 -3.023265 -11.215855 -56.853928 0.149276 -0.011538 0.001508 -1.387229 -17.308411 0.085808 -13.434589 1.366315 7.711408 0.016599 -0.011479 0.018795 2.341894 4.182625 -0.771680 0.013279 -0.009183 0.015036 3.151995 15.144947 14.369420 0.014456 -0.013059 0.010250 -10.605935 -34.090796 -12.408171 0.015409 -0.005836 0.006127 0.000003 -0.000005 -0.000003 0.058139 -0.012928 0.026743 5.658644 4.504448 -24.007167 0.019478 -0.002795 0.003770 9.390270 6.525469 -28.675508 0.018431 -0.006555 0.003525 5.032222 3.188311 -16.412750 0.014863 -0.005676 0.002838 0.000003 -0.000000 -0.000005 0.064553 -0.011181 0.012411 6.085932 3.237175 -34.483952 0.020561 -0.003542 0.001522 6.147992 7.222824 -29.156572 0.018977 -0.006194 0.001281 2.418991 3.102515 -13.697123 0.015793 -0.005321 0.001059 -0.000001 -0.000001 0.000004 0.067743 -0.009572 -0.001152 7.151493 4.610872 -32.533581 0.015754 -0.004869 0.000370 5.531647 7.034947 -32.075320 0.015204 -0.005044 0.000338 2.999410 4.328348 -27.473838 0.013793 -0.001850 0.000454 -0.000000 0.000001 -0.000000 0.058240 -0.006670 -0.013857 2.657710 0.478220 -38.584179 0.015962 -0.004222 -0.000441 4.357044 8.076320 -26.515944 0.013500 -0.006547 -0.000572 3.970091 6.905695 -44.123428 0.010668 -0.001383 -0.000195 -0.000001 -0.000001 0.000001 -0.046024 0.085057 -0.007612 0.596150 3.355374 17.623490 -0.070507 -0.028884 -0.003805 5.746461 7.375252 59.737668 -0.149276 -0.011538 0.001282 -0.496185 6.304644 -0.270145 7.525387 -4.066269 -7.903253 -0.016492 -0.012268 0.019296 3.314550 -4.334179 -6.228250 -0.013194 -0.009814 0.015437 8.813098 -8.789732 -1.320001 -0.015136 -0.011876 0.009573 -13.680161 19.641220 1.208613 -0.014578 -0.005026 0.006542 -0.000003 0.000000 0.000001 -0.060353 -0.013094 0.027023 5.824734 -3.658070 29.105615 -0.019556 -0.003388 0.003747 5.805900 -3.892097 20.060371 -0.017538 -0.006243 0.003332 3.987235 -2.300246 13.858789 -0.013927 -0.005867 0.002640 -0.000001 0.000002 -0.000001 -0.069900 -0.011737 0.012215 6.908680 -3.632365 36.742391 -0.018027 -0.003254 0.001949 4.787954 -4.534643 22.865300 -0.018049 -0.006266 0.001863 6.390954 -2.312079 42.115356 -0.012728 0.000405 0.001448 -0.000001 -0.000001 -0.000001 -0.073747 -0.012707 -0.000657 6.676422 -3.641804 34.427087 -0.014667 -0.003480 0.000431 5.596832 -6.368236 39.248678 -0.013545 -0.003837 0.000370 2.529125 -3.354757 29.282073 -0.009662 -0.000523 0.000371 0.000000 -0.000001 -0.000002 -0.055387 -0.006842 -0.012656 -0.648405 3.303028 31.279128 -0.017334 -0.004221 -0.001570 0.857955 -5.517752 20.179239 -0.014222 -0.005827 -0.001465 0.047620 -5.684367 34.031592 -0.011262 -0.001679 -0.000943 0.000002 -0.000001 -0.000003 0.080402 -0.036238 -0.004361 1.898967 10.104426 -1.759984 11.832333 1.282972 -1.876354 -11.084138 -0.577702 5.980324 0.006850 -0.065070 0.084472 -4.122086 0.000038 -0.000371 -0.000000 0.000000 -0.000000 -0.080402 -0.036238 -0.004783 -27.728258 -4.306658 1.861611 45.035337 -6.173623 0.409596 -1.170566 -0.145161 1.836315 -0.006261 -0.065095 0.084808 -0.836206 0.000010 -0.000057 -0.003433 0.000265 0.043469 -0.000001 0.000001 0.000001 
-0.001712 0.564114 0.003215 -1.667047 -0.855746 -1.890400 0.000000 0.065228 -0.005709 5.219347 -2.529961 1.090608 0.619419 -0.733413 0.019322 0.620777 -0.729296 0.023256 0.000000 0.097841 -0.008563 -1.112290 0.516800 -0.004785 0.000000 0.036700 0.014540 -3.778958 4.272619 2.725686 0.000000 0.142277 0.056367 -0.000000 0.000000 -0.000000 0.046024 0.085057 -0.009514 0.761719 -0.868007 -16.424138 0.070507 -0.028884 -0.001902 -4.419924 -14.420502 -55.755323 0.149276 -0.011538 0.001508 -1.678437 -20.672570 -0.009363 -14.684584 -0.551057 7.599992 0.016599 -0.011479 0.018795 2.979927 4.413707 -1.183169 0.013279 -0.009183 0.015036 3.415248 15.543272 14.262990 0.014456 -0.013059 0.010250 -10.746648 -34.616341 -12.157485 0.015409 -0.005836 0.006127 0.000002 -0.000002 -0.000001 0.058139 -0.012928 0.026743 5.593018 4.397926 -23.930118 0.019479 -0.002795 0.003770 9.486370 6.543491 -28.963503 0.018431 -0.006555 0.003525 5.119343 3.223900 -16.683398 0.014862 -0.005676 0.002838 -0.000001 0.000001 -0.000007 0.064552 -0.011181 0.012411 6.015231 3.125282 -34.822750 0.020561 -0.003542 0.001522 6.212968 7.259198 -29.428037 0.018977 -0.006194 0.001281 2.479171 3.161561 -13.999538 0.015793 -0.005321 0.001058 0.000000 0.000000 -0.000001 0.067743 -0.009572 -0.001152 7.023332 4.479695 -32.774977 0.015754 -0.004869 0.000370 5.615836 7.093538 -32.452165 0.015204 -0.005044 0.000338 3.042314 4.375744 -27.709929 0.013793 -0.001850 0.000454 -0.000002 -0.000003 -0.000001 0.058240 -0.006670 -0.013857 2.559012 0.422549 -38.969668 0.015962 -0.004222 -0.000441 4.393297 8.113126 -26.714063 0.013500 -0.006547 -0.000572 4.022002 6.952419 -44.383618 0.010668 -0.001383 -0.000195 0.000000 -0.000001 0.000002 -0.046024 0.085057 -0.007612 0.650155 2.671430 17.771763 -0.070507 -0.028884 -0.003805 8.633433 4.822622 60.976514 -0.149276 -0.011538 0.001282 -0.470097 5.970986 -0.272961 10.313859 -4.328095 -7.866150 -0.016492 -0.012269 0.019296 3.069067 -4.709920 -6.092780 -0.013194 -0.009815 0.015437 8.873499 -8.947457 -1.258234 -0.015136 -0.011876 0.009573 -13.956261 19.968953 0.925991 -0.014578 -0.005026 0.006542 -0.000004 0.000004 0.000000 -0.060353 -0.013094 0.027023 6.283361 -3.788806 30.628798 -0.019556 -0.003388 0.003747 6.124826 -3.966279 21.172398 -0.017538 -0.006243 0.003332 4.300482 -2.401293 14.947527 -0.013927 -0.005867 0.002640 -0.000001 0.000004 -0.000001 -0.069900 -0.011737 0.012215 7.114647 -3.650570 37.890181 -0.018027 -0.003254 0.001949 5.016776 -4.635309 23.909468 -0.018049 -0.006266 0.001863 6.618097 -2.382304 43.230436 -0.012728 0.000405 0.001448 -0.000002 0.000002 0.000000 -0.073747 -0.012707 -0.000657 6.969080 -3.740066 35.581071 -0.014667 -0.003480 0.000431 5.756661 -6.450636 40.106031 -0.013545 -0.003837 0.000370 2.675522 -3.508625 30.312796 -0.009662 -0.000523 0.000371 0.000001 -0.000001 -0.000001 -0.055388 -0.006842 -0.012656 -0.560862 3.089575 32.374403 -0.017334 -0.004221 -0.001570 0.905531 -5.676888 20.955201 -0.014222 -0.005827 -0.001465 0.129282 -5.885959 34.982166 -0.011262 -0.001679 -0.000943 -0.000003 0.000001 0.000001 0.080402 -0.036238 -0.004361 4.350695 10.470539 -1.309864 12.738335 0.129696 -1.817512 -15.083390 -0.967430 7.345339 0.006850 -0.065070 0.084472 -7.011352 0.000084 -0.000633 0.000000 0.000001 -0.000000 -0.080402 -0.036238 -0.004783 -29.508794 -4.782011 2.427016 32.467779 -9.910441 0.583335 -0.260250 -0.101440 1.079030 -0.006261 -0.065095 0.084808 -0.566920 0.000007 -0.000040 -0.003433 0.000265 0.043469 0.000000 0.000003 0.000000 
